<svg width="500" height="120" xmlns="http://www.w3.org/2000/svg">
 <!-- Created with Method Draw - http://github.com/duopixel/Method-Draw/ -->

 <g>
  <title>Alkali A</title>
  <path stroke="#773366" id="svg_1" d="m45.681493,63.752503l13.923711,-6.402664l0,3.201324l20.1791,0l0,-3.201324l13.923705,6.402664l-13.923705,6.40263l0,-3.201316l-20.1791,0l0,3.201316l-13.923711,-6.40263z" stroke-width="1.5" fill="#773366"/>
  <path stroke="#773366" transform="rotate(-60 36.04192352294921,56.30739974975586) " id="svg_2" d="m-23.255637,56.307419l34.382762,-7.498993l0,3.749486l49.829616,0l0,-3.749486l34.382746,7.498993l-34.382746,7.498953l0,-3.749477l-49.829616,0l0,3.749477l-34.382762,-7.498953z" stroke-width="1.5" fill="#773366"/>
  <path stroke="#773366" transform="rotate(60 103.12712097167967,56.29773712158204) " id="svg_4" d="m43.384974,56.297756l34.640544,-7.413953l0,3.706967l50.20321,0l0,-3.706967l34.640528,7.413953l-34.640528,7.413914l0,-3.706957l-50.20321,0l0,3.706957l-34.640544,-7.413914z" stroke-width="1.5" fill="#773366"/>
  <text stroke="#000" xml:space="preserve" text-anchor="start" font-family="Helvetica, Arial, sans-serif" font-size="110" letter-spacing="14" id="svg_5" y="108.120684" x="156" stroke-opacity="null" stroke-width="0" fill="#445588">lkali</text>
 </g>
</svg>
